# xmcd
#
# Track frame offsets:
#	150
#	17663
#	30309
#	50043
#	60971
#	74747
#	90574
#	100856
#	124907
#	139378
#
# Disc length: 1989 seconds
#
# Revision: 428827002
# Processed by: cddbd v1.5.2PL0 Copyright (c) Steve Scherf et al.
# Submitted via: EZCDAudioConverter 9.0.5.1
#
DISCID=8807c30a
DTITLE=Jimmy Witherspoon w Brother Jack McDuff - The Blues Is Now
DYEAR=2005
DGENRE=Blues
TTITLE0=Sweet Slumber
TTITLE1=I'm Gonna Move To The Outskirts Of Town
TTITLE2=Past Forty Blues
TTITLE3=SK Blues
TTITLE4=Late One Evening
TTITLE5=Part Time Woman
TTITLE6=Good Rocking Tonight
TTITLE7=I Won't Tell A Soul
TTITLE8=My Baby's Quit Me
TTITLE9=My Money's Long This Morning Baby
EXTD=
EXTT0=
EXTT1=
EXTT2=
EXTT3=
EXTT4=
EXTT5=
EXTT6=
EXTT7=
EXTT8=
EXTT9=
PLAYORDER=
